# xmcd
#
# Track frame offsets:
#	150
#	10970
#	20320
#	33677
#	51790
#	61737
#	78755
#	91162
#	112240
#	120137
#	134560
#	148257
#	162732
#	173842
#	185300
#	192585
#	206072
#	219940
#	229875
#	244845
#	256725
#	270280
#	283272
#	291405
#	305915
#	314900
#	323715
#
# Disc length: 4508 seconds
#
# Revision: 0
# Processed by: cddbd v1.5.2PL0 Copyright (c) Steve Scherf et al.
# Submitted via: EasyCDDAExtractor 12.0.1.1
#
DISCID=9a119a1b
DTITLE=Chamaste-me, Senhor! - Refrãos orantes vocacionais
DYEAR=2009
DGENRE=Católica
TTITLE0=Oração inicial
TTITLE1=Senhor, chamaste-me, aqui estou!
TTITLE2=Sai da tua casa!
TTITLE3=Clamores do povo
TTITLE4=Sou muito novo, não sei falar
TTITLE5=Ah! Não sei falar!
TTITLE6=Seduziste-me, Senhor!
TTITLE7=Gravado em mim
TTITLE8=Eu te conhecia
TTITLE9=Quem por mim perde a vida
TTITLE10=Vinde, benditos de meu Pai
TTITLE11=Anunciem em suas canções
TTITLE12=Eis aqui tua serva
TTITLE13=O Espírito me ungiu
TTITLE14=Para as águas mais profundas
TTITLE15=A colheita
TTITLE16=Eu sou a luz do mundo
TTITLE17=Se alguém me quer servir
TTITLE18=A glória de meu Pai
TTITLE19=O Mistério do Evangelho
TTITLE20=Todo sacerdote é escolhido do meio do povo
TTITLE21=Eis-me aqui, ó Deus!
TTITLE22=Sede santos!
TTITLE23=Ministros da comunidade
TTITLE24=Deus nos criou por seu amor
TTITLE25=A Palavra do Senhor
TTITLE26=Quem poderia imaginar
EXTD=
EXTT0=
EXTT1=
EXTT2=
EXTT3=
EXTT4=
EXTT5=
EXTT6=
EXTT7=
EXTT8=
EXTT9=
EXTT10=
EXTT11=
EXTT12=
EXTT13=
EXTT14=
EXTT15=
EXTT16=
EXTT17=
EXTT18=
EXTT19=
EXTT20=
EXTT21=
EXTT22=
EXTT23=
EXTT24=
EXTT25=
EXTT26=
PLAYORDER=
